<svg width="32" height="32" viewBox="0 0 32 32" fill="none" xmlns="http://www.w3.org/2000/svg">
<rect width="32" height="32" fill="white"/>
<path fill-rule="evenodd" clip-rule="evenodd" d="M7.27208 11.872V14.2515H5.53286V17.1764C5.53286 17.8869 6.15763 17.953 7.27208 17.8869V20.1343C3.96248 20.4647 3 19.4898 3 17.1764V14.2515V11.872V11.359C3 10.7325 3.41289 10.181 4.01399 10.0045L5.53286 9.55859V11.872H7.27208ZM14.5972 12.2057V12.9364C14.0526 12.3456 13.2439 11.988 12.1381 11.988C9.97605 11.988 8.1936 13.776 8.1936 16.0925C8.1936 18.4091 9.97605 20.1971 12.1381 20.1971C13.2439 20.1971 14.0526 19.8395 14.5972 19.2487V19.9794H17.0728V12.2057H14.5972ZM14.6151 16.0738C14.6151 14.9198 14.0114 14.1879 12.5938 14.1879C11.1828 14.1879 10.4674 14.9198 10.4674 16.0606V16.1134C10.4674 17.2608 11.1828 17.9993 12.5938 17.9993C14.0179 17.9993 14.6151 17.2674 14.6151 16.1002V16.0738ZM23.3105 11.9876C22.1942 11.9876 21.3779 12.3411 20.8282 12.9251V12.2027H18.3291V22.961H20.8282V19.1648C21.3779 19.7489 22.1942 20.1024 23.3105 20.1024C24.1803 20.1024 24.9893 19.8216 25.6477 19.3389C25.5762 19.1494 25.5402 18.9352 25.5402 18.7006V18.6567C25.5402 17.748 26.0848 17.1506 27.1596 17.0996C27.246 16.7648 27.2922 16.4116 27.2922 16.045C27.2922 13.755 25.4929 11.9876 23.3105 11.9876ZM20.856 16.3991C20.8376 16.2862 20.8282 16.168 20.8282 16.045C20.8282 15.9285 20.8366 15.8164 20.8532 15.7089C20.9431 14.9997 21.3562 14.4894 22.0864 14.2771C22.3052 14.2076 22.5456 14.1708 22.8018 14.17C22.8448 14.1685 22.8886 14.1678 22.9331 14.1678C24.3322 14.1678 24.9282 14.8902 24.9282 16.0292V16.0552C24.9282 17.2072 24.3387 17.9297 22.9331 17.9297C21.6812 17.9297 20.9842 17.3406 20.856 16.3991ZM27.5368 17.394C28.5606 17.394 28.9967 17.9227 28.9967 18.7561V18.7751C28.9967 19.618 28.5654 20.1467 27.5368 20.1467C26.5178 20.1467 26.0011 19.6133 26.0011 18.7846V18.7466C26.0011 17.9227 26.5178 17.394 27.5368 17.394Z" fill="#21272D"/>
</svg>
