<svg xmlns="http://www.w3.org/2000/svg" version="1.1" xmlns:xlink="http://www.w3.org/1999/xlink" xmlns:svgjs="http://svgjs.dev/svgjs" width="1000" height="623" viewBox="0 0 1000 623"><g transform="matrix(1,0,0,1,-0.6060605904179965,0.2522267206477409)"><svg viewBox="0 0 396 247" data-background-color="#f9f9f9" preserveAspectRatio="xMidYMid meet" height="623" width="1000" xmlns="http://www.w3.org/2000/svg" xmlns:xlink="http://www.w3.org/1999/xlink"><g id="tight-bounds" transform="matrix(1,0,0,1,0.2400000061945775,-0.09999999999999432)"><svg viewBox="0 0 395.52 247.2" height="247.2" width="395.52"><g><svg viewBox="0 0 395.52 247.2" height="247.2" width="395.52"><g transform="matrix(1,0,0,1,0,69.94221937139191)"><svg viewBox="0 0 395.52 107.31556125721616" height="107.31556125721616" width="395.52"><g><svg viewBox="0 0 395.52 107.31556125721616" height="107.31556125721616" width="395.52"><g><svg viewBox="0 0 395.52 107.31556125721616" height="107.31556125721616" width="395.52"><g><svg viewBox="0 0 395.52 107.31556125721616" height="107.31556125721616" width="395.52"><g><svg viewBox="0 0 395.52 107.31556125721616" height="107.31556125721616" width="395.52"><g><svg viewBox="0 0 395.52 107.31556125721616" height="107.31556125721616" width="395.52"><g transform="matrix(1,0,0,1,0,0)"><svg width="395.52" viewBox="0.12000000476837158 -31.90999984741211 152.23001098632812 41.30999755859375" height="107.31556125721616" data-palette-color="#030303"><path d="M12.92 0.37Q11.4 0.37 10.45-0.07L10.45-0.07 10.42 3.42 15.77 4.81 15.21 9.08 0.12 9.08 0.63 5.59 3.2 3.83 3.2-16.36 0.32-18.33 0.98-21.7 8.74-22.41 9.67-21.46 9.67-18.82 10.03-18.82Q11.11-20.63 12.62-21.79 14.14-22.95 16.11-22.95L16.11-22.95Q18.29-22.95 20.09-21.85 21.9-20.75 23.02-18.35 24.15-15.94 24.15-12.21L24.15-12.21Q24.15-8.13 22.51-5.29 20.87-2.44 18.3-1.04 15.72 0.37 12.92 0.37L12.92 0.37ZM13.43-16.43Q11.99-16.43 10.5-14.89L10.5-14.89 10.45-5.1Q11.65-4.88 12.74-4.88L12.74-4.88Q14.4-4.88 15.41-6.35 16.41-7.81 16.41-10.72L16.41-10.72Q16.41-13.33 15.67-14.88 14.94-16.43 13.43-16.43L13.43-16.43ZM36.55 0.81Q40.09 0.81 42.56-0.68 45.04-2.17 46.34-5.04 47.63-7.91 47.63-11.99L47.63-11.99Q47.63-17.53 44.94-20.39 42.26-23.24 37.06-23.24L37.06-23.24Q34.1-23.24 31.49-21.78 28.88-20.31 27.29-17.55 25.71-14.79 25.71-11.13L25.71-11.13Q25.71-5.2 28.29-2.2 30.88 0.81 36.55 0.81L36.55 0.81ZM36.13-17.92Q37.72-17.92 38.55-15.61 39.38-13.31 39.38-10.21L39.38-10.21Q39.38-7.3 38.89-5.83 38.4-4.37 37.3-4.37L37.3-4.37Q36.3-4.37 35.52-5.31 34.74-6.25 34.3-7.96 33.86-9.67 33.86-11.94L33.86-11.94Q33.86-14.97 34.36-16.44 34.86-17.92 36.13-17.92L36.13-17.92ZM59.35-30.81L58.37-31.91 49.43-31.25 48.73-27.73 51.68-25.76 51.68-5.25 49.12-3.49 48.6 0 61.2 0 61.76-3.78 59.35-5.18 59.35-30.81ZM68.72-23.88Q71.4-23.88 72.72-24.99 74.04-26.1 74.04-27.76L74.04-27.76Q74.04-28.78 73.45-29.64 72.87-30.49 71.67-30.99 70.48-31.49 68.77-31.49L68.77-31.49Q66.96-31.49 65.68-31.01 64.4-30.52 63.75-29.68 63.1-28.83 63.1-27.78L63.1-27.78Q63.1-26.05 64.42-24.96 65.74-23.88 68.72-23.88L68.72-23.88ZM72.67-21.29L71.7-22.39 62.76-21.73 62.05-18.21 65.01-16.24 65.01-5.25 62.44-3.49 61.93 0 74.53 0 75.09-3.78 72.67-5.18 72.67-21.29ZM75.5-18.77L78.21-16.94 83.24 0.95 89.05 0.27 91.64-10.11 94.42 1 100.75 0.24 105.46-16.92 107.8-18.65 108.39-22.34 99.06-22.34 98.48-18.95 100.28-17.24 99.01-11.62 98.5-8.18 95.52-21.24 89.88-20.75 87.78-11.4 87.27-8.25 85.41-17.24 87.49-18.58 88-22.34 76.06-22.34 75.5-18.77ZM108.31-5.37Q108.31-3.76 109.03-2.42 109.75-1.07 111.11-0.28 112.46 0.51 114.32 0.51L114.32 0.51Q115.73 0.51 117.04-0.06 118.35-0.63 119.21-1.54 120.08-2.44 120.25-3.39L120.25-3.39 120.59-3.39 120.62-3.08Q120.74-1.32 121.91-0.37 123.08 0.59 125.13 0.59L125.13 0.59Q127.18 0.59 129.43-0.83L129.43-0.83 130.04-4.69 129.36-4.88Q128.6-5.13 128.14-5.55 127.67-5.98 127.44-6.84 127.21-7.69 127.21-9.13L127.21-9.13 127.21-15.65Q127.21-19.53 124.91-21.22 122.62-22.9 118.93-22.9L118.93-22.9Q114.78-22.9 112.13-21.59 109.48-20.29 109.48-17.41L109.48-17.41Q109.48-16.48 110.02-15.66 110.56-14.84 111.6-14.28 112.63-13.72 114.05-13.57L114.05-13.57Q114.68-15.14 115.77-16.3 116.86-17.46 117.86-17.46L117.86-17.46Q118.64-17.46 119.16-16.89 119.69-16.33 119.69-15.55L119.69-15.55 119.69-13.16Q116.54-13.26 113.96-12.46 111.39-11.67 109.85-9.89 108.31-8.11 108.31-5.37L108.31-5.37ZM115.76-7.47Q115.76-8.33 116.44-8.91 117.13-9.5 118.07-9.79 119.01-10.08 119.69-10.08L119.69-10.08 119.69-6.2Q118.69-5.49 117.69-5.49L117.69-5.49Q116.71-5.49 116.24-5.97 115.76-6.45 115.76-7.47L115.76-7.47ZM144.71-5.42Q152.35-5.42 152.35 0.83L152.35 0.83Q152.35 3.42 150.75 5.35 149.15 7.28 146.08 8.34 143 9.4 138.68 9.4L138.68 9.4Q134.26 9.4 131.76 8.08 129.26 6.76 129.26 4.13L129.26 4.13Q129.26 2.51 130.31 1.37 131.36 0.22 133.11-0.05L133.11-0.05 133.11-0.46Q132.28-0.73 131.64-1.6 130.99-2.47 130.99-3.34L130.99-3.34Q130.99-4.25 131.69-5.03 132.38-5.81 133.49-6.34 134.6-6.86 135.82-7.01L135.82-7.01 135.82-7.45Q134.04-8.23 132.79-9.81 131.53-11.4 131.53-14.48L131.53-14.48Q131.53-16.65 132.77-18.63 134.02-20.61 136.35-21.83 138.68-23.05 141.76-23.05L141.76-23.05Q143.47-23.05 144.98-22.63L144.98-22.63Q145.1-23.44 145.1-25.56L145.1-25.56Q145.1-27.1 144.66-28.74L144.66-28.74Q145.18-29.03 146.15-29.24 147.13-29.44 147.93-29.44L147.93-29.44Q149.35-29.44 150.2-28.56 151.06-27.69 151.06-26.29L151.06-26.29Q151.06-24.61 149.88-23.38 148.69-22.14 147.1-21.7L147.1-21.7 147.1-21.51Q148.94-20.48 149.95-18.75 150.96-17.02 150.96-14.82L150.96-14.82Q150.96-10.77 148.36-8.68 145.76-6.59 141.07-6.59L141.07-6.59Q140.39-6.59 140.05-6.62L140.05-6.62Q139.93-6.2 139.93-6.03L139.93-6.03Q139.93-5.69 140.21-5.55 140.49-5.42 141.17-5.42L141.17-5.42 144.71-5.42ZM141.22-17.94Q140.05-17.94 139.45-16.81 138.85-15.67 138.85-13.79L138.85-13.79Q138.85-12.35 139.52-11.38 140.19-10.4 141.37-10.4L141.37-10.4Q143.71-10.4 143.71-14.11L143.71-14.11Q143.71-15.28 143.36-16.15 143-17.02 142.44-17.48 141.88-17.94 141.22-17.94L141.22-17.94ZM141.68 4.54Q143.25 4.54 144.17 3.96 145.1 3.37 145.1 2.49L145.1 2.49Q145.1 1.22 144.37 0.61 143.64 0 142 0L142 0 137.19 0Q136.78 0.95 136.78 1.66L136.78 1.66Q136.78 3.03 137.99 3.78 139.19 4.54 141.68 4.54L141.68 4.54Z" opacity="1" transform="matrix(1,0,0,1,0,0)" fill="#030303" class="undefined-text-0" data-fill-palette-color="primary" id="text-0"></path></svg></g></svg></g></svg></g></svg></g></svg></g></svg></g></svg></g></svg></g><defs></defs></svg><rect width="395.52" height="247.2" fill="none" stroke="none" visibility="hidden"></rect></g></svg></g></svg>